<svg width="512" height="512" viewBox="0 0 512 512" fill="none" xmlns="http://www.w3.org/2000/svg">
  <!-- Proce Logo - Spiral Design -->
  <g transform="translate(256, 256)">
    <!-- Outer spiral curve -->
    <path d="M -200 -100 Q -150 -200, 0 -200 Q 150 -200, 200 -100 Q 250 0, 200 100 Q 150 200, 0 200 Q -150 200, -200 100 Q -250 0, -200 -100 Z" 
          fill="currentColor" 
          stroke="none"/>
    
    <!-- Middle spiral curve (white space) -->
    <path d="M -150 -75 Q -100 -150, 0 -150 Q 100 -150, 150 -75 Q 200 0, 150 75 Q 100 150, 0 150 Q -100 150, -150 75 Q -200 0, -150 -75 Z" 
          fill="white" 
          stroke="none"/>
    
    <!-- Inner spiral curve -->
    <path d="M -100 -50 Q -50 -100, 0 -100 Q 50 -100, 100 -50 Q 150 0, 100 50 Q 50 100, 0 100 Q -50 100, -100 50 Q -150 0, -100 -50 Z" 
          fill="currentColor" 
          stroke="none"/>
    
    <!-- Center spiral curve (white space) -->
    <path d="M -50 -25 Q -25 -50, 0 -50 Q 25 -50, 50 -25 Q 75 0, 50 25 Q 25 50, 0 50 Q -25 50, -50 25 Q -75 0, -50 -25 Z" 
          fill="white" 
          stroke="none"/>
    
    <!-- Bottom accent curve -->
    <path d="M -180 120 Q 0 180, 180 120" 
          stroke="currentColor" 
          stroke-width="40" 
          fill="none" 
          stroke-linecap="round"/>
    
    <!-- Top accent curve -->
    <path d="M -180 -120 Q 0 -180, 180 -120" 
          stroke="currentColor" 
          stroke-width="40" 
          fill="none" 
          stroke-linecap="round"/>
  </g>
</svg>

